<mxfile host="65bd71144e">
    <diagram name="Page-1" id="c7558073-3199-34d8-9f00-42111426c3f3">
        <mxGraphModel dx="604" dy="233" grid="1" gridSize="10" guides="1" tooltips="1" connect="1" arrows="1" fold="1" page="1" pageScale="1" pageWidth="826" pageHeight="1169" background="#ffffff" math="0" shadow="0">
            <root>
                <mxCell id="0"/>
                <mxCell id="1" parent="0"/>
                <mxCell id="2" value="&lt;p style=&quot;margin: 4px 0px 0px; text-align: center;&quot;&gt;&lt;strong style=&quot;&quot;&gt;yamlparser&lt;br&gt;&lt;/strong&gt;&lt;/p&gt;&lt;hr&gt;&lt;p style=&quot;margin: 0px; margin-left: 8px;&quot;&gt;parsing yaml&lt;br&gt;&lt;/p&gt;" style="verticalAlign=middle;align=center;overflow=fill;fontSize=12;fontFamily=Helvetica;html=1;rounded=1;fontStyle=1;strokeWidth=3;fillColor=#E6FFCC" parent="1" vertex="1">
                    <mxGeometry x="446" y="236" width="110" height="90" as="geometry"/>
                </mxCell>
                <mxCell id="4" value="symphony agent??" style="whiteSpace=wrap;align=center;verticalAlign=middle;fontStyle=1;strokeWidth=3;fillColor=#FFFFCC" parent="1" vertex="1">
                    <mxGeometry x="230" y="251" width="90" height="60" as="geometry"/>
                </mxCell>
                <mxCell id="5" value="api-server" style="shape=process;whiteSpace=wrap;align=center;verticalAlign=middle;size=0.0475;fontStyle=1;strokeWidth=3;fillColor=#e6ffcc;" parent="1" vertex="1">
                    <mxGeometry x="411" y="391" width="262" height="50" as="geometry"/>
                </mxCell>
                <mxCell id="10" value="&lt;p style=&quot;margin: 4px 0px 0px; text-align: center;&quot;&gt;&lt;strong style=&quot;&quot;&gt;gateway&lt;/strong&gt;&lt;/p&gt;&lt;hr&gt;&lt;p style=&quot;margin: 0px; margin-left: 8px;&quot;&gt;check&lt;/p&gt;&lt;p style=&quot;margin: 0px; margin-left: 8px;&quot;&gt;condition&lt;/p&gt;" style="verticalAlign=middle;align=center;overflow=fill;fontSize=12;fontFamily=Helvetica;html=1;rounded=1;fontStyle=1;strokeWidth=3;fillColor=#E6FFCC;gradientColor=#e6f3a5;" parent="1" vertex="1">
                    <mxGeometry x="219.99999999999991" y="371" width="110" height="90" as="geometry"/>
                </mxCell>
                <mxCell id="13" value="Bluechi-controller" style="whiteSpace=wrap;align=center;verticalAlign=middle;fontStyle=1;strokeWidth=3;fillColor=#FFFFCC" parent="1" vertex="1">
                    <mxGeometry x="541.5" y="650" width="90" height="60" as="geometry"/>
                </mxCell>
                <mxCell id="37" value="" style="edgeStyle=none;noEdgeStyle=1;strokeColor=#990000;strokeWidth=2" parent="1" source="4" target="2" edge="1">
                    <mxGeometry width="100" height="100" relative="1" as="geometry">
                        <mxPoint x="490" y="190" as="sourcePoint"/>
                        <mxPoint x="590" y="90" as="targetPoint"/>
                    </mxGeometry>
                </mxCell>
                <mxCell id="11" value="&lt;p style=&quot;margin: 4px 0px 0px; text-align: center;&quot;&gt;&lt;strong style=&quot;&quot;&gt;statemanager&lt;/strong&gt;&lt;/p&gt;&lt;hr&gt;&lt;p style=&quot;margin: 0px; margin-left: 8px;&quot;&gt;&lt;span style=&quot;background-color: initial;&quot;&gt;action&lt;/span&gt;&lt;br&gt;&lt;/p&gt;" style="verticalAlign=middle;align=center;overflow=fill;fontSize=12;fontFamily=Helvetica;html=1;rounded=1;fontStyle=1;strokeWidth=3;fillColor=#E6FFCC" parent="1" vertex="1">
                    <mxGeometry x="521.5" y="510" width="110" height="90" as="geometry"/>
                </mxCell>
                <mxCell id="52" value="gRPC - yaml path" style="text;spacingTop=-5;align=center" parent="1" vertex="1">
                    <mxGeometry x="366" y="261" width="30" height="20" as="geometry"/>
                </mxCell>
                <mxCell id="56" value="" style="edgeStyle=elbowEdgeStyle;elbow=horizontal;strokeColor=#990000;strokeWidth=2" parent="1" source="2" target="5" edge="1">
                    <mxGeometry width="100" height="100" relative="1" as="geometry">
                        <mxPoint x="260" y="500" as="sourcePoint"/>
                        <mxPoint x="360" y="400" as="targetPoint"/>
                        <Array as="points">
                            <mxPoint x="490" y="360"/>
                        </Array>
                    </mxGeometry>
                </mxCell>
                <mxCell id="57" value="gRPC&#10;- scenario parsing result" style="text;spacingTop=-5;align=center" parent="1" vertex="1">
                    <mxGeometry x="350" y="332" width="144" height="39" as="geometry"/>
                </mxCell>
                <mxCell id="83" value="" style="edgeStyle=elbowEdgeStyle;elbow=horizontal;strokeColor=#990000;strokeWidth=2" parent="1" source="11" target="13" edge="1">
                    <mxGeometry width="100" height="100" relative="1" as="geometry">
                        <mxPoint x="410" y="660.0000000000002" as="sourcePoint"/>
                        <mxPoint x="440.0000000000001" y="650" as="targetPoint"/>
                    </mxGeometry>
                </mxCell>
                <mxCell id="84" value="send request" style="text;spacingTop=-5;align=center" parent="1" vertex="1">
                    <mxGeometry x="620.0000000000002" y="610.0000000000002" width="30" height="20" as="geometry"/>
                </mxCell>
                <mxCell id="89" value="" style="edgeStyle=elbowEdgeStyle;elbow=horizontal;strokeColor=#990000;strokeWidth=2;dashed=1;dashPattern=1 1;" parent="1" edge="1">
                    <mxGeometry width="100" height="100" relative="1" as="geometry">
                        <mxPoint x="573" y="510" as="sourcePoint"/>
                        <mxPoint x="573" y="441" as="targetPoint"/>
                        <Array as="points">
                            <mxPoint x="573" y="470"/>
                        </Array>
                    </mxGeometry>
                </mxCell>
                <mxCell id="91" value="gRPC - result&#10;(not yet)" style="text;spacingTop=-5;align=center" parent="1" vertex="1">
                    <mxGeometry x="570" y="461" width="90" height="30" as="geometry"/>
                </mxCell>
                <mxCell id="92" value="" style="edgeStyle=elbowEdgeStyle;elbow=horizontal;strokeColor=#990000;strokeWidth=2;entryX=1;entryY=0.5;entryDx=0;entryDy=0;exitX=0;exitY=0.5;exitDx=0;exitDy=0;" parent="1" source="5" target="10" edge="1">
                    <mxGeometry width="100" height="100" relative="1" as="geometry">
                        <mxPoint x="403" y="416" as="sourcePoint"/>
                        <mxPoint x="340.0000000000001" y="400" as="targetPoint"/>
                        <Array as="points">
                            <mxPoint x="373" y="416"/>
                            <mxPoint x="460" y="470"/>
                        </Array>
                    </mxGeometry>
                </mxCell>
                <mxCell id="93" value="" style="edgeStyle=elbowEdgeStyle;elbow=horizontal;strokeColor=#990000;strokeWidth=2;entryX=0.036;entryY=0.444;entryDx=0;entryDy=0;entryPerimeter=0;startArrow=classic;startFill=1;" parent="1" source="10" target="vXQ5WWabHy_hSCokeJlB-97" edge="1">
                    <mxGeometry width="100" height="100" relative="1" as="geometry">
                        <mxPoint x="250" y="510" as="sourcePoint"/>
                        <mxPoint x="440" y="510" as="targetPoint"/>
                        <Array as="points">
                            <mxPoint x="310" y="490"/>
                            <mxPoint x="340" y="530"/>
                            <mxPoint x="440" y="470"/>
                        </Array>
                    </mxGeometry>
                </mxCell>
                <mxCell id="vXQ5WWabHy_hSCokeJlB-97" value="&lt;p style=&quot;margin: 4px 0px 0px; text-align: center;&quot;&gt;&lt;strong style=&quot;&quot;&gt;etcd&lt;/strong&gt;&lt;/p&gt;&lt;hr&gt;&lt;p style=&quot;margin: 0px; margin-left: 8px;&quot;&gt;save data&lt;/p&gt;" style="verticalAlign=middle;align=center;overflow=fill;fontSize=12;fontFamily=Helvetica;html=1;rounded=1;fontStyle=1;strokeWidth=3;fillColor=#E6FFCC" parent="1" vertex="1">
                    <mxGeometry x="390" y="470" width="74" height="50" as="geometry"/>
                </mxCell>
                <mxCell id="vXQ5WWabHy_hSCokeJlB-104" value="Vehicle" style="whiteSpace=wrap;align=center;verticalAlign=middle;fontStyle=1;strokeWidth=3;fillColor=#FFFFCC" parent="1" vertex="1">
                    <mxGeometry x="40" y="381" width="90" height="60" as="geometry"/>
                </mxCell>
                <mxCell id="vXQ5WWabHy_hSCokeJlB-105" value="DDS" style="text;spacingTop=-5;align=center" parent="1" vertex="1">
                    <mxGeometry x="162" y="389" width="30" height="20" as="geometry"/>
                </mxCell>
                <mxCell id="vXQ5WWabHy_hSCokeJlB-106" value="" style="endArrow=classic;html=1;rounded=1;exitX=1;exitY=0.5;exitDx=0;exitDy=0;entryX=-0.04;entryY=0.442;entryDx=0;entryDy=0;entryPerimeter=0;strokeColor=#990000;strokeWidth=2;" parent="1" source="vXQ5WWabHy_hSCokeJlB-104" target="10" edge="1">
                    <mxGeometry width="50" height="50" relative="1" as="geometry">
                        <mxPoint x="390" y="520" as="sourcePoint"/>
                        <mxPoint x="440" y="470" as="targetPoint"/>
                    </mxGeometry>
                </mxCell>
                <mxCell id="vXQ5WWabHy_hSCokeJlB-107" value="" style="endArrow=classic;html=1;rounded=1;exitX=0.124;exitY=0.988;exitDx=0;exitDy=0;entryX=0.705;entryY=-0.044;entryDx=0;entryDy=0;entryPerimeter=0;strokeColor=#990000;strokeWidth=2;exitPerimeter=0;" parent="1" source="5" target="vXQ5WWabHy_hSCokeJlB-97" edge="1">
                    <mxGeometry width="50" height="50" relative="1" as="geometry">
                        <mxPoint x="413" y="481" as="sourcePoint"/>
                        <mxPoint x="499" y="481" as="targetPoint"/>
                    </mxGeometry>
                </mxCell>
                <mxCell id="vXQ5WWabHy_hSCokeJlB-111" value="" style="edgeStyle=elbowEdgeStyle;elbow=horizontal;strokeColor=#990000;strokeWidth=2;entryX=0;entryY=0.75;entryDx=0;entryDy=0;startArrow=none;startFill=0;" parent="1" source="10" target="11" edge="1">
                    <mxGeometry width="100" height="100" relative="1" as="geometry">
                        <mxPoint x="250" y="470" as="sourcePoint"/>
                        <mxPoint x="554.05" y="545.3799999999999" as="targetPoint"/>
                        <Array as="points">
                            <mxPoint x="250" y="530"/>
                            <mxPoint x="250" y="510"/>
                            <mxPoint x="652" y="550"/>
                        </Array>
                    </mxGeometry>
                </mxCell>
                <mxCell id="vXQ5WWabHy_hSCokeJlB-116" value="" style="edgeStyle=elbowEdgeStyle;elbow=horizontal;strokeColor=#990000;strokeWidth=2;startArrow=classic;startFill=1;exitX=0;exitY=0.5;exitDx=0;exitDy=0;" parent="1" source="11" target="vXQ5WWabHy_hSCokeJlB-97" edge="1">
                    <mxGeometry width="100" height="100" relative="1" as="geometry">
                        <mxPoint x="363" y="520" as="sourcePoint"/>
                        <mxPoint x="446" y="551" as="targetPoint"/>
                        <Array as="points">
                            <mxPoint x="440" y="540"/>
                            <mxPoint x="393" y="589"/>
                            <mxPoint x="493" y="529"/>
                        </Array>
                    </mxGeometry>
                </mxCell>
                <mxCell id="vXQ5WWabHy_hSCokeJlB-118" value="&lt;p style=&quot;margin: 4px 0px 0px; text-align: center;&quot;&gt;&lt;strong style=&quot;&quot;&gt;api&lt;br&gt;&lt;/strong&gt;&lt;/p&gt;&lt;hr&gt;&lt;p style=&quot;margin: 0px; margin-left: 8px;&quot;&gt;.proto&lt;br&gt;for&lt;/p&gt;&lt;p style=&quot;margin: 0px; margin-left: 8px;&quot;&gt;gRPC&lt;/p&gt;" style="verticalAlign=middle;align=center;overflow=fill;fontSize=12;fontFamily=Helvetica;html=1;rounded=1;fontStyle=1;strokeWidth=3;fillColor=#d5e8d4;strokeColor=#82b366;gradientColor=#97d077;" parent="1" vertex="1">
                    <mxGeometry x="60" y="570" width="110" height="80" as="geometry"/>
                </mxCell>
                <mxCell id="vXQ5WWabHy_hSCokeJlB-119" value="&lt;p style=&quot;margin: 4px 0px 0px; text-align: center;&quot;&gt;&lt;strong style=&quot;&quot;&gt;common&lt;br&gt;&lt;/strong&gt;&lt;/p&gt;&lt;hr&gt;&lt;p style=&quot;margin: 0px; margin-left: 8px;&quot;&gt;&lt;br&gt;&lt;/p&gt;&lt;p style=&quot;margin: 0px; margin-left: 8px;&quot;&gt;&lt;br&gt;&lt;/p&gt;&lt;p style=&quot;margin: 0px; margin-left: 8px;&quot;&gt;&lt;br&gt;&lt;/p&gt;&lt;p style=&quot;margin: 0px; margin-left: 8px;&quot;&gt;&lt;br&gt;&lt;/p&gt;&lt;p style=&quot;margin: 0px; margin-left: 8px;&quot;&gt;&lt;br&gt;&lt;/p&gt;&lt;p style=&quot;margin: 0px; margin-left: 8px;&quot;&gt;&lt;br&gt;&lt;/p&gt;&lt;p style=&quot;margin: 0px; margin-left: 8px;&quot;&gt;&lt;br&gt;&lt;/p&gt;&lt;p style=&quot;margin: 0px; margin-left: 8px;&quot;&gt;Common variable&lt;/p&gt;&lt;p style=&quot;margin: 0px; margin-left: 8px;&quot;&gt;api abstraction&lt;/p&gt;&lt;p style=&quot;margin: 0px; margin-left: 8px;&quot;&gt;library&lt;/p&gt;" style="verticalAlign=middle;align=center;overflow=fill;fontSize=12;fontFamily=Helvetica;html=1;rounded=1;fontStyle=1;strokeWidth=3;fillColor=#d5e8d4;gradientColor=#97d077;strokeColor=#82b366;opacity=50;" parent="1" vertex="1">
                    <mxGeometry x="13" y="530" width="217" height="180" as="geometry"/>
                </mxCell>
                <mxCell id="vXQ5WWabHy_hSCokeJlB-120" value="&lt;p style=&quot;margin: 4px 0px 0px; text-align: center;&quot;&gt;&lt;strong style=&quot;&quot;&gt;test-grpc-sender&lt;br&gt;&lt;/strong&gt;&lt;/p&gt;&lt;hr style=&quot;font-size: 11px;&quot;&gt;&lt;p style=&quot;margin: 0px 0px 0px 8px; font-size: 11px;&quot;&gt;&lt;font style=&quot;font-size: 11px;&quot;&gt;used as&lt;br&gt;a replacement&lt;/font&gt;&lt;/p&gt;&lt;p style=&quot;margin: 0px 0px 0px 8px; font-size: 11px;&quot;&gt;&lt;font style=&quot;font-size: 11px;&quot;&gt;for &lt;br&gt;symphony agent&lt;/font&gt;&lt;/p&gt;" style="verticalAlign=middle;align=center;overflow=fill;fontSize=12;fontFamily=Helvetica;html=1;rounded=1;fontStyle=1;strokeWidth=3;fillColor=#f3fde7;" parent="1" vertex="1">
                    <mxGeometry x="220" y="120" width="110" height="90" as="geometry"/>
                </mxCell>
                <mxCell id="vXQ5WWabHy_hSCokeJlB-121" value="" style="edgeStyle=none;noEdgeStyle=1;strokeColor=#990000;strokeWidth=2;exitX=1;exitY=0.5;exitDx=0;exitDy=0;entryX=0.342;entryY=-0.013;entryDx=0;entryDy=0;entryPerimeter=0;dashed=1;" parent="1" source="vXQ5WWabHy_hSCokeJlB-120" target="2" edge="1">
                    <mxGeometry width="100" height="100" relative="1" as="geometry">
                        <mxPoint x="364" y="164.6" as="sourcePoint"/>
                        <mxPoint x="490" y="164.6" as="targetPoint"/>
                        <Array as="points">
                            <mxPoint x="484" y="165"/>
                        </Array>
                    </mxGeometry>
                </mxCell>
                <mxCell id="vXQ5WWabHy_hSCokeJlB-122" value="&lt;p style=&quot;margin: 4px 0px 0px; text-align: center;&quot;&gt;&lt;strong style=&quot;&quot;&gt;piccoloctl&lt;br&gt;&lt;/strong&gt;&lt;/p&gt;&lt;hr&gt;&lt;p style=&quot;margin: 0px 0px 0px 8px; font-size: 11px;&quot;&gt;&lt;font style=&quot;font-size: 11px;&quot;&gt;for testing&lt;/font&gt;&lt;/p&gt;&lt;p style=&quot;margin: 0px 0px 0px 8px; font-size: 11px;&quot;&gt;&lt;font style=&quot;font-size: 11px;&quot;&gt;bluechi&lt;/font&gt;&lt;/p&gt;&lt;p style=&quot;margin: 0px 0px 0px 8px; font-size: 11px;&quot;&gt;&lt;font style=&quot;font-size: 11px;&quot;&gt;command&lt;/font&gt;&lt;/p&gt;&lt;p style=&quot;margin: 0px 0px 0px 8px; font-size: 11px;&quot;&gt;&lt;font style=&quot;font-size: 11px;&quot;&gt;directly&lt;/font&gt;&lt;/p&gt;" style="verticalAlign=middle;align=center;overflow=fill;fontSize=12;fontFamily=Helvetica;html=1;rounded=1;fontStyle=1;strokeWidth=3;fillColor=#f3fde7;" parent="1" vertex="1">
                    <mxGeometry x="500" y="80" width="110" height="90" as="geometry"/>
                </mxCell>
                <mxCell id="vXQ5WWabHy_hSCokeJlB-123" value="&lt;p style=&quot;margin: 4px 0px 0px; text-align: center;&quot;&gt;&lt;strong style=&quot;&quot;&gt;piccoloyaml&lt;br&gt;&lt;/strong&gt;&lt;/p&gt;&lt;hr&gt;&lt;p style=&quot;margin: 0px 0px 0px 8px; font-size: 11px;&quot;&gt;&lt;font style=&quot;font-size: 11px;&quot;&gt;for testing&lt;/font&gt;&lt;/p&gt;&lt;p style=&quot;margin: 0px 0px 0px 8px; font-size: 11px;&quot;&gt;&lt;font style=&quot;font-size: 11px;&quot;&gt;systemd&lt;/font&gt;&lt;/p&gt;&lt;p style=&quot;margin: 0px 0px 0px 8px; font-size: 11px;&quot;&gt;&lt;font style=&quot;font-size: 11px;&quot;&gt;workload&lt;/font&gt;&lt;/p&gt;&lt;p style=&quot;margin: 0px 0px 0px 8px; font-size: 11px;&quot;&gt;&lt;font style=&quot;font-size: 11px;&quot;&gt;creation&lt;/font&gt;&lt;/p&gt;" style="verticalAlign=middle;align=center;overflow=fill;fontSize=12;fontFamily=Helvetica;html=1;rounded=1;fontStyle=1;strokeWidth=3;fillColor=#f3fde7;" parent="1" vertex="1">
                    <mxGeometry x="620" y="80" width="110" height="90" as="geometry"/>
                </mxCell>
                <mxCell id="vXQ5WWabHy_hSCokeJlB-127" value="" style="endArrow=classic;html=1;rounded=1;exitX=0.75;exitY=1;exitDx=0;exitDy=0;entryX=0.656;entryY=0.012;entryDx=0;entryDy=0;entryPerimeter=0;strokeColor=#990000;strokeWidth=2;dashed=1;" parent="1" source="vXQ5WWabHy_hSCokeJlB-122" target="5" edge="1">
                    <mxGeometry width="50" height="50" relative="1" as="geometry">
                        <mxPoint x="632" y="320" as="sourcePoint"/>
                        <mxPoint x="718" y="320" as="targetPoint"/>
                    </mxGeometry>
                </mxCell>
                <mxCell id="vXQ5WWabHy_hSCokeJlB-128" value="" style="endArrow=classic;html=1;rounded=1;exitX=0.25;exitY=1;exitDx=0;exitDy=0;entryX=0.909;entryY=-0.036;entryDx=0;entryDy=0;entryPerimeter=0;strokeColor=#990000;strokeWidth=2;dashed=1;" parent="1" source="vXQ5WWabHy_hSCokeJlB-123" target="5" edge="1">
                    <mxGeometry width="50" height="50" relative="1" as="geometry">
                        <mxPoint x="720" y="219" as="sourcePoint"/>
                        <mxPoint x="720" y="441" as="targetPoint"/>
                    </mxGeometry>
                </mxCell>
                <mxCell id="vXQ5WWabHy_hSCokeJlB-129" value="" style="endArrow=classic;html=1;rounded=1;exitX=1;exitY=0.5;exitDx=0;exitDy=0;strokeColor=#990000;strokeWidth=2;dashed=1;entryX=0.986;entryY=0.569;entryDx=0;entryDy=0;entryPerimeter=0;" parent="1" source="5" target="11" edge="1">
                    <mxGeometry width="50" height="50" relative="1" as="geometry">
                        <mxPoint x="750" y="450" as="sourcePoint"/>
                        <mxPoint x="660" y="560" as="targetPoint"/>
                        <Array as="points">
                            <mxPoint x="750" y="416"/>
                            <mxPoint x="750" y="560"/>
                        </Array>
                    </mxGeometry>
                </mxCell>
                <mxCell id="vXQ5WWabHy_hSCokeJlB-131" value="" style="endArrow=none;dashed=1;html=1;rounded=0;entryX=0.647;entryY=-0.02;entryDx=0;entryDy=0;entryPerimeter=0;exitX=1;exitY=0.5;exitDx=0;exitDy=0;" parent="1" source="5" target="5" edge="1">
                    <mxGeometry width="50" height="50" relative="1" as="geometry">
                        <mxPoint x="730" y="340" as="sourcePoint"/>
                        <mxPoint x="620" y="330" as="targetPoint"/>
                        <Array as="points">
                            <mxPoint x="580" y="416"/>
                        </Array>
                    </mxGeometry>
                </mxCell>
                <mxCell id="vXQ5WWabHy_hSCokeJlB-132" value="" style="endArrow=none;dashed=1;html=1;rounded=0;entryX=0.903;entryY=-0.02;entryDx=0;entryDy=0;entryPerimeter=0;" parent="1" target="5" edge="1">
                    <mxGeometry width="50" height="50" relative="1" as="geometry">
                        <mxPoint x="648" y="416" as="sourcePoint"/>
                        <mxPoint x="750" y="310" as="targetPoint"/>
                    </mxGeometry>
                </mxCell>
                <mxCell id="vXQ5WWabHy_hSCokeJlB-133" value="" style="endArrow=none;html=1;rounded=0;exitX=0;exitY=0.5;exitDx=0;exitDy=0;entryX=0.292;entryY=0.012;entryDx=0;entryDy=0;entryPerimeter=0;" parent="1" source="5" target="5" edge="1">
                    <mxGeometry width="50" height="50" relative="1" as="geometry">
                        <mxPoint x="390" y="430" as="sourcePoint"/>
                        <mxPoint x="520" y="350" as="targetPoint"/>
                        <Array as="points">
                            <mxPoint x="488" y="416"/>
                        </Array>
                    </mxGeometry>
                </mxCell>
                <mxCell id="vXQ5WWabHy_hSCokeJlB-134" value="" style="endArrow=none;html=1;rounded=0;" parent="1" edge="1">
                    <mxGeometry width="50" height="50" relative="1" as="geometry">
                        <mxPoint x="444" y="440" as="sourcePoint"/>
                        <mxPoint x="444" y="416" as="targetPoint"/>
                    </mxGeometry>
                </mxCell>
            </root>
        </mxGraphModel>
    </diagram>
</mxfile>